<svg xmlns="http://www.w3.org/2000/svg" viewBox="0 0 290.57 319"><title>peugeot-logo</title><path d="M252.84,414c-41.57-19.29-77.67-50.89-101.66-89s-36.6-82.37-39.71-139.4c-1-18.44-1-41.5,0-70.49l.21-6.11,6-1a834.29,834.29,0,0,1,276.55,0l6,1,.21,6.11c1,29,1,52,0,70.49-3.11,57-15.73,101.33-39.71,139.4s-60.1,69.7-101.66,89L256,415.5Z" transform="translate(-110.71 -96.5)"/><path d="M256,102.82a813.27,813.27,0,0,1,138.08,11.93c.7,18.86,1.5,48,.16,72.77-3,55.17-15.14,98-38.22,134.76s-58.64,68.19-100,86.91c-41.38-18.72-77-50.25-100-86.91s-35.22-79.59-38.22-134.76c-1.35-24.74-.55-53.9.16-72.77A813.3,813.3,0,0,1,256,102.82Zm0,5.31a808.41,808.41,0,0,0-132.94,11.13c-1,28-1,50.25,0,68,2.94,54.23,14.83,96.24,37.41,132.22s56.44,65.69,95.53,83.89c39.09-18.21,72.95-47.92,95.53-83.89s34.47-78,37.41-132.22c1-17.71,1-40,0-68A808.44,808.44,0,0,0,256,108.13Zm-.38,161.1s.87,5.16,1.13,6.66a3.42,3.42,0,0,1,0,1.91c-.69,2.68-3.9,16.79-6.47,31.24l-.4,2.28c-1,6.08-2,12.12-2.49,17.29a12.11,12.11,0,0,0,.57,6.24c2.2,7.36,10.32,26.59,11.88,30.1a4.18,4.18,0,0,1,.33,1.21h0l.59,4.54c-2.6-3.93-16.74-29.94-22.3-44.35-.66-1.7-.78-2.53-.06-5.65C242.23,304.15,252.68,276,255.62,269.23Zm-20.62-40s1.09,3.52,2.13,7.35l.37,1.36a63.28,63.28,0,0,1,1.47,6.51,5.22,5.22,0,0,1-.36,3.34c-1.29,3.44-3.67,9-6.2,14.62l-1.09,2.42c-3.11,6.86-6.26,13.48-7.79,16.35a14.73,14.73,0,0,1-2.88,3.78c-3.24,3.3-9.43,9.53-13.26,13a6,6,0,0,0-2.05,4c-.46,2.63-.91,7.13-1,9.45a7.66,7.66,0,0,0,1.36,5c6.76,12.06,29.32,39.82,35.74,45.65a12.62,12.62,0,0,0,1.79,1.36c.95.63,4,2.63,4,2.63a1.09,1.09,0,0,1,.31.33h0l1.12,2-.29-.15-.48-.24-1.49-.74-1.43-.72c-2.2-1.1-4.81-2.43-6.19-3.17a9.57,9.57,0,0,1-1.59-1.08c-7.53-6.26-30.59-33.27-37.37-44.55-1.69-2.82-1.87-3.73-1.64-6.39.43-5,1.08-11.2,1.66-13.93a7.7,7.7,0,0,1,2-4.08c4.25-4.89,9.42-11.35,14.47-18L218,273c7.65-10.16,14.69-20.34,17.32-25.52a4.73,4.73,0,0,0,.66-2.7,84.26,84.26,0,0,0-1.27-11.11,3,3,0,0,1,0-.75h0Zm62.95-6.06,2,.85a4.74,4.74,0,0,1,1.54,1.07c12,12.49,21.52,25.44,23.43,28.85a5.47,5.47,0,0,1,.71,2.06,150.37,150.37,0,0,1-4.09,54.3,5.22,5.22,0,0,1-2.3,3.38c-4.69,3.53-11.68,9.15-18.63,14.89l-2.19,1.81c-8.38,6.94-16.34,13.74-19.72,16.87a12.72,12.72,0,0,0-2.19,2.67c-1.58,2.58-4,7-5.19,9.21l-.33.62-.38.7c-1.58-3.44-5-11.84-6.19-15.23a4.33,4.33,0,0,1,0-3.17c1.92-7,11-27.49,12.77-31.19h0v1.51a2,2,0,0,1-.1.65c-.8,2.42-5.68,18.54-6.67,25.53a9.76,9.76,0,0,0,0,3.5,72.22,72.22,0,0,0,2.38,9.25,41.59,41.59,0,0,1,2.23-4,10.77,10.77,0,0,1,1.71-2c4.37-4.32,11.82-11,19.57-17.72l2.75-2.37c6-5.12,11.91-10.1,16.61-13.91a4.52,4.52,0,0,0,2-3.53c1.35-9.26,1.74-25.88.93-38a12.92,12.92,0,0,0-2.18-6.39,90.42,90.42,0,0,0-11.82-13.79,5.3,5.3,0,0,1-1.48-2.79c-1.56-8.33-5-23.55-5-23.55Zm-101.1,19.26a4.22,4.22,0,0,1,2.29-.09c3.41.82,10.62,2.59,16.08,4a4,4,0,0,1,2.13,1.59h0l1.19,2a2.33,2.33,0,0,1,.08,2.26c-1,1.92-2.41,4.53-3.9,7.21l-1.13,2c-2.08,3.7-4.15,7.26-5.33,9.14a4.29,4.29,0,0,1-2.59,2.28c-5.37,1.89-12,4.15-16,5.43a1.25,1.25,0,0,0-.93,1.65c.28,1.64,1.2,7.19,1.55,8.82a1.16,1.16,0,0,0,1.5.91c2.34-.44,8.57-2,8.57-2l-2.94,2.7a1.84,1.84,0,0,1-.7.41c-1.7.57-5.84,1.73-7.14,2-1,.22-1.65-.18-1.91-1.32,0,0-1.77-7.53-2.41-10.09-.1-.39-.2-.73-.32-1.11-.48-1.48-1.63-4.4-2.28-5.92a1.37,1.37,0,0,1-.11-.56c0-1.74.34-5.64.34-5.64s3.82,3.58,5.66,4.87a1.18,1.18,0,0,0,1.18.22c2.54-.65,8.37-2.58,11.57-3.78a4.45,4.45,0,0,0,1.87-1.34A93.39,93.39,0,0,0,213,253.21a2.79,2.79,0,0,0,.19-2.08h0l-.52-1.7a2.2,2.2,0,0,0-1.16-1.25c-5.64-2.15-10.09-3.74-15.32-5.53h0ZM308.43,194a5.19,5.19,0,0,1,3.82.09c9.46,4,25.36,13.32,34.2,19.91a3,3,0,0,1,1.42,2.1c2.08,9.45,2.86,24.06,1.56,36.35a6.17,6.17,0,0,1-.73,2.36c-5.6,11.46-11.91,22.25-18.54,30.58h0v-.14c.09-.89.56-5.88.59-8.59a1,1,0,0,1,.39-.77c1.23-1,2.92-2.32,3.88-3.15a4.47,4.47,0,0,0,1-1.1c2.7-4.37,7.54-13.52,9.48-19a10.07,10.07,0,0,0,.55-4.19c-.62-7.67-1.83-18.31-3.62-25.24a4.27,4.27,0,0,0-2.17-2.74c-1.55-.79-4.58-2.18-11.49-5a9.75,9.75,0,0,1-2.64-1.58c-4.53-3.81-11.61-9.52-16-12.81a5.49,5.49,0,0,0-4.5-1c-3.21.73-7.3,1.74-9.6,2.37a4,4,0,0,1-1.9.14l-1.53-.15-.86-.08-2.32-.19h-.16C296.7,198.67,303.91,195.63,308.43,194Zm-100,62a98.41,98.41,0,0,1-7.26,10.52,2.55,2.55,0,0,1-1.06.75c-2.32.87-6.17,2.17-9,3h0Zm-31-5.07-1.38,9.55-4.7-5.53c.86-1.86,3.36-3.61,6.09-4Zm25.33-54.09-1.29,1.58-.21.21c-1.13.84-5.89,4.49-7.18,5.51a1.44,1.44,0,0,0-.6,1c-.29,1.61-.77,4.68-.91,6.38a1,1,0,0,1-.76.95c-2.21.9-4.83,1.85-6.94,2.69a2.78,2.78,0,0,0-.85.45c-.21.16-3,2.68-3,2.68s6.11-1.51,8.36-2a1.57,1.57,0,0,1,1.26.15c.46.21,1.23.52,1.64.67a2.42,2.42,0,0,0,1.64.07c2.53-.56,6.78-1.57,9-2.16a7.56,7.56,0,0,0,2.81-1.32c1.08-.75,3.83-2.81,3.83-2.81s-.05.36-.09.56a.76.76,0,0,1-.2.41c-.56.67-1.53,1.77-2,2.27a7.89,7.89,0,0,1-3.17,2.14c-6.43,2.68-17.41,6.84-25.65,9.7a2.53,2.53,0,0,0-1.17.75c-.43.44-1,1.08-1,1.08s6.72.49,8.77.73a2.81,2.81,0,0,1,1.65.73c1.69,1.45,7.26,7.2,8.93,9.2,0,0-15.86,2.64-23.21,4.47a2,2,0,0,0-1.57,1.53c-.61,2.14-2,9-2,9a7.06,7.06,0,0,1-1.22-.57,4.93,4.93,0,0,1-1.27-1.08,73.36,73.36,0,0,1-6-7.4,1.62,1.62,0,0,1-.07-2c1.49-1.84,4.48-5.19,6.13-6.91a4.3,4.3,0,0,0,.64-1,34.23,34.23,0,0,0,1.54-4.91l.08-.33h0v0l0,0-.3.19-1.35.85a1.5,1.5,0,0,0-.72.76c-.27.56-.74,1.45-1.09,2.06a3,3,0,0,1-.6.64c-2.11,1.61-4.44,3.34-6.09,4.51a.28.28,0,0,1-.36-.05c-.21-.21-1.1-1.22-1.25-1.45a1.05,1.05,0,0,1-.19-.62c0-.42,0-1.16.08-1.71s.24-1,1-1.78,1.85-1.88,2.86-2.87c2.49-2.09,8.76-7.19,20-15.2a2.45,2.45,0,0,0,.56-.54c1.18-1.59,4.52-5.93,5.35-7a2.47,2.47,0,0,1,.39-.4,31.67,31.67,0,0,1,3.31-2.34c3.12-2,9.17-5.56,12.55-7.53Zm68.3-3.55a2.3,2.3,0,0,1,1.38.19h0l3.27,1.57a1.2,1.2,0,0,1,.64.8c.44,1.87,1,4.36,1.35,6.47a3.82,3.82,0,0,1-.46,2.55c-1.35,2.36-4.14,6.6-5.69,8.87a2.32,2.32,0,0,0-.28,1.74C272,219.38,275,233,275,233h0l-1.85-1.69a2.69,2.69,0,0,1-.77-1.17c-1.32-3.86-3.78-11.92-4.91-15.84a2,2,0,0,1,.38-1.85c1.93-2.35,4.74-6.1,6.39-8.48a2,2,0,0,0,.34-2c-.38-.78-1-2-1.63-3a1.35,1.35,0,0,0-.76-.62h0l-2.22-.71a1.85,1.85,0,0,0-1.19,0c-4.84,1.76-11.35,4.29-15.33,5.94a2.24,2.24,0,0,1-1.53.15c-1.15-.17-4.51-.77-6.16-1.08a.44.44,0,0,1-.29-.65h0l2-3.39a1.88,1.88,0,0,1,1.22-.9C254.89,196.34,263.19,194.69,271.09,193.3Zm-69.51,15.56a.7.7,0,0,1,.7.42,3.56,3.56,0,0,1-.09,2.82,1.54,1.54,0,0,1-1,.79h0l-3.13.7a.29.29,0,0,1-.35-.3h0l.29-3.68a.51.51,0,0,1,.47-.47h0Zm35.67-23.67a.47.47,0,0,1,.41.7h0L230,199.06a3.38,3.38,0,0,1-2,1.61h0l-14.33,4.49a21.09,21.09,0,0,1-4.8.91c-3.18.24-12.62.54-12.62.54h0l.21-.45a.94.94,0,0,1,.49-.47h0l4.47-1.9a2.17,2.17,0,0,0,.85-.64h0l6.9-8.5a4.63,4.63,0,0,1,1.36-1.16,147.25,147.25,0,0,1,18.34-7.9,6.49,6.49,0,0,1,1.82-.3h0Zm-7.66-15.3a373.93,373.93,0,0,1,57.66-.22,10.71,10.71,0,0,1,3.37.82c6.7,2.82,18.58,9,31.79,16.56A10,10,0,0,1,324,188.2c3.5,3.09,12.37,12.17,12.37,12.17h0l-2.77-.55a2.92,2.92,0,0,1-1.08-.45A211.61,211.61,0,0,0,312,187.26a7.56,7.56,0,0,0-2.6-.76c-3.33-.36-7.83-.67-10.78-.79a8.33,8.33,0,0,1-3.86-1c-2.72-1.38-9.29-4.37-12.57-5.62a7.81,7.81,0,0,0-3.49-.64c-5.63.08-18.45.49-25,.9a3.11,3.11,0,0,1-.66,0h0l-3.12-.49c8.85-1.53,30.73-3.48,39.79-4h0L286,173.62a7.58,7.58,0,0,0-2.21-.38c-2,0-6.34-.13-12-.14h-1.94c-8.6,0-19.66.23-29.86,1a7.78,7.78,0,0,0-2.58.64c-4.12,1.81-14.17,7.27-24.25,12.87l-2.24,1.25-7.63,4.28,1.5-1.93a1.75,1.75,0,0,1,.57-.51l3.18-2.1,1-.69,2-1.35.6-.44c3-2.29,7.82-6.33,10.68-8.83a8.5,8.5,0,0,0,1.64-2c.92-1.5,1.93-3.12,2.55-4A3.4,3.4,0,0,1,229.59,169.88ZM162.24,133.5c3.91-.4,6.09,1.12,6.09,5.07h0v2.19c0,4-2.18,5.69-6.09,6.09q-8.1.85-16.2,1.84h0v6l-3.4.42h0V135.77Q152.43,134.53,162.24,133.5Zm181.31-.63q12.92,1.26,25.81,2.89h0v3.12q-5.57-.7-11.16-1.34h0v16.22l-3.4-.38h0V137.16q-5.62-.62-11.25-1.17h0Zm-143.08-2.54v3.12q-10.63.66-21.24,1.56h0v4.76q9.44-.81,18.89-1.41h0v3.12q-9.45.61-18.89,1.41h0v5.23q10.61-.91,21.24-1.56h0v3.12q-12.29.76-24.57,1.85h0V132.18q12.28-1.09,24.57-1.85Zm110.2,5.3c0-4.34,2.15-5.23,7-4.9q6.38.44,12.75,1c4.21.35,7,1.53,7,6h0v8.64c0,4.34-2.4,5.13-7,4.75q-6.37-.53-12.75-1c-4.63-.31-7-1.21-7-5.8h0Zm-32.95-6.75q12.31.29,24.6.93h0v3.12q-10.63-.54-21.27-.84h0v4.76q9.47.26,18.92.72h0v3.12q-9.46-.46-18.92-.72h0v5.22q10.64.29,21.27.84h0v3.12q-12.3-.63-24.6-.93h0Zm-42.69,0v14c0,4.43-2.32,5.4-7,5.54q-6.11.19-12.22.46c-4.34.2-7-.63-7-5h0v-14h0l3.33-.17v14.58a1.61,1.61,0,0,0,1.77,1.56q8-.37,16-.61a1.68,1.68,0,0,0,1.69-1.69h0V129l3.41-.09Zm80.73,4.85a1.6,1.6,0,0,0-1.77,1.65h0v9.56a2,2,0,0,0,1.77,1.89q8.27.55,16.54,1.25a1.71,1.71,0,0,0,1.76-1.62h0v-9.57a2,2,0,0,0-1.76-1.92Q324,134.27,315.76,133.72Zm-66-5.08q9.17-.07,18.34.06h0v3.12q-9.8-.13-19.61-.05a1.81,1.81,0,0,0-1.77,1.66h0v9.69a1.88,1.88,0,0,0,1.77,1.75q8.79-.08,17.59,0h0v-5.23q-5.1-.06-10.2-.05h0v-3.12q6.77,0,13.53.1h0v11.46q-9.51-.14-19-.08c-4.64,0-7-.77-7-5.28h0v-8.43C243.37,130.06,245.48,128.68,249.73,128.65Zm-86.22,7.87h-.26q-8.61.89-17.21,1.94h0v7.12q8.6-1.05,17.21-1.94A2,2,0,0,0,165,141.9h0V138a1.58,1.58,0,0,0-1.76-1.46Z" transform="translate(-110.71 -96.5)" style="fill:#fff"/></svg>