<?xml version="1.0" standalone="no"?>
<!DOCTYPE svg PUBLIC "-//W3C//DTD SVG 20010904//EN"
 "http://www.w3.org/TR/2001/REC-SVG-20010904/DTD/svg10.dtd">
<svg version="1.0" xmlns="http://www.w3.org/2000/svg"
 width="900.000000pt" height="1004.000000pt" viewBox="0 0 900.000000 1004.000000"
 preserveAspectRatio="xMidYMid meet">

<g transform="translate(0.000000,1004.000000) scale(0.100000,-0.100000)"
fill="#000000" stroke="none">
<path d="M4200 10030 c-416 -25 -837 -125 -1225 -290 -143 -61 -415 -199 -547
-277 -811 -479 -1394 -1151 -1801 -2073 -214 -487 -357 -1205 -357 -1794 1
-710 186 -1411 540 -2047 l60 -107 -423 -544 c-232 -299 -426 -549 -431 -556
-8 -14 -2 -24 127 -197 372 -499 854 -952 1345 -1264 551 -350 1165 -592 1867
-735 529 -108 1187 -160 1590 -126 1288 110 2547 747 3635 1840 165 166 401
421 408 440 2 5 -209 244 -469 532 -259 288 -478 530 -486 539 -12 14 -6 29
48 120 74 125 222 417 278 551 175 414 284 840 333 1298 17 164 17 714 0 875
-36 339 -97 666 -158 850 -289 878 -774 1560 -1499 2106 -254 191 -527 363
-683 431 -742 319 -1488 468 -2152 428z m715 -304 c607 -81 1219 -298 1645
-583 748 -501 1211 -1019 1491 -1668 128 -298 252 -777 311 -1205 20 -145 22
-207 23 -515 0 -356 -2 -388 -46 -655 -88 -537 -314 -1102 -656 -1646 l-51
-80 267 -321 c146 -176 353 -425 459 -552 l193 -233 -98 -101 c-834 -861
-1730 -1419 -2714 -1692 -442 -123 -904 -184 -1247 -165 -1311 71 -2330 416
-3139 1063 -300 239 -612 569 -847 896 l-58 82 59 72 c476 582 793 980 787
990 -4 7 -32 50 -63 97 -648 993 -820 2008 -530 3129 81 314 177 575 323 876
345 712 825 1259 1468 1670 468 301 1120 509 1743 559 108 8 574 -4 680 -18z"/>
<path d="M4195 9129 c-380 -36 -791 -141 -1190 -304 -223 -91 -305 -133 -414
-213 -615 -447 -1049 -1010 -1312 -1700 -138 -361 -249 -943 -234 -1222 46
-868 315 -1583 829 -2207 178 -215 481 -499 732 -686 230 -170 760 -363 1199
-436 373 -62 782 -58 1150 10 502 93 1095 335 1464 596 639 454 1074 1032
1281 1705 59 192 73 255 125 561 l5 27 -553 0 -552 0 -19 -87 c-28 -132 -109
-372 -166 -490 -229 -480 -624 -882 -1183 -1203 -162 -92 -222 -118 -369 -155
-581 -146 -1152 -52 -1771 292 -228 127 -279 164 -438 323 -451 447 -669 969
-710 1697 -11 190 1 526 22 636 14 74 113 315 201 488 292 577 715 980 1292
1235 293 129 430 159 771 171 582 20 1136 -186 1614 -600 473 -410 700 -789
817 -1364 l4 -23 534 0 533 0 -18 98 c-103 563 -301 1046 -595 1447 -197 270
-493 551 -789 750 -707 473 -1288 668 -1980 664 -104 -1 -230 -6 -280 -10z"/>
<path d="M4225 7645 c-288 -42 -563 -151 -821 -323 -161 -108 -283 -212 -445
-380 -119 -123 -144 -154 -192 -244 -299 -561 -349 -1133 -146 -1676 99 -264
204 -447 319 -555 346 -326 766 -561 1139 -637 345 -70 729 -38 1029 86 586
243 970 627 1137 1137 23 73 45 144 49 160 l6 27 -529 0 -529 0 -37 -65 c-77
-139 -193 -259 -330 -343 -131 -80 -336 -132 -525 -132 -96 0 -119 4 -197 31
-175 62 -302 138 -421 253 -169 163 -257 363 -283 644 -27 291 64 620 226 814
141 169 365 280 650 323 95 14 115 14 198 0 297 -48 518 -158 651 -324 58 -71
118 -177 137 -241 l12 -40 498 0 498 0 -6 38 c-81 570 -447 1008 -1118 1336
-136 67 -218 88 -445 116 -115 14 -415 11 -525 -5z"/>
<path d="M1247 2721 c-165 -67 -297 -260 -285 -415 7 -83 36 -145 98 -206 106
-107 230 -132 354 -71 l67 33 -22 36 c-18 30 -42 66 -64 100 -2 1 -24 -9 -51
-23 -87 -47 -166 -22 -212 66 -29 56 -24 103 21 178 44 73 137 158 183 167
109 20 199 -41 199 -136 0 -25 -3 -54 -7 -65 -7 -18 2 -25 67 -58 l75 -37 16
57 c40 139 -28 276 -177 357 -71 39 -188 47 -262 17z"/>
<path d="M7399 2637 c-41 -20 -319 -243 -319 -255 0 -8 462 -557 471 -560 10
-4 119 86 119 97 0 4 -38 52 -85 107 l-84 99 32 29 c154 137 186 184 187 269
0 61 -18 104 -67 157 -71 80 -168 101 -254 57z m134 -178 c31 -34 34 -63 9
-100 -19 -28 -118 -119 -130 -119 -14 0 -124 142 -115 149 5 3 30 23 54 43 92
76 131 82 182 27z"/>
<path d="M7896 2331 l-48 -48 54 -57 53 -57 55 55 54 56 -49 50 c-27 27 -54
50 -60 50 -6 0 -32 -22 -59 -49z"/>
<path d="M1681 2077 c-176 -122 -321 -225 -321 -229 0 -4 30 -28 67 -52 l67
-45 30 22 c17 13 47 35 67 50 20 15 39 27 43 27 3 0 57 -34 120 -76 l113 -75
-18 -77 c-10 -42 -18 -82 -19 -88 0 -10 139 -109 144 -102 2 2 38 167 80 368
43 201 80 375 83 387 4 17 -6 29 -54 60 -32 22 -63 42 -69 46 -6 4 -156 -94
-333 -216z m250 -107 c-15 -63 -32 -115 -37 -115 -15 0 -134 79 -131 87 2 6
190 146 194 144 0 0 -11 -53 -26 -116z"/>
<path d="M6950 2251 c-46 -14 -93 -42 -252 -148 l-157 -106 148 -221 c82 -121
175 -260 208 -308 l60 -87 66 45 c37 26 65 49 63 53 -2 3 -41 60 -85 126 l-81
119 37 23 c21 13 53 23 71 23 19 0 99 -27 180 -60 l146 -59 77 52 c42 28 74
55 71 59 -10 10 -188 87 -251 109 -30 11 -67 19 -83 19 -28 0 -37 13 -18 25 6
4 19 24 30 45 75 146 -77 337 -230 291z m65 -175 c33 -34 41 -70 21 -101 -22
-33 -184 -141 -195 -129 -21 25 -81 115 -81 123 0 15 183 131 207 131 13 0 35
-11 48 -24z"/>
<path d="M2363 2037 c-4 -7 -83 -154 -175 -327 l-167 -314 70 -39 c39 -22 72
-38 73 -36 2 2 31 57 65 121 l62 117 102 -51 c119 -60 181 -71 252 -44 99 38
172 177 145 278 -23 86 -57 114 -298 241 -84 45 -124 61 -129 54z m176 -236
c96 -56 114 -105 62 -163 -22 -25 -36 -32 -63 -31 -37 1 -181 69 -176 83 2 4
21 42 43 84 26 49 45 74 53 71 7 -3 44 -23 81 -44z"/>
<path d="M6285 1866 c-111 -35 -208 -114 -246 -199 -34 -76 -33 -199 3 -284
99 -235 274 -324 481 -243 168 64 259 218 229 383 -27 147 -135 294 -247 336
-64 24 -157 27 -220 7z m172 -159 c80 -42 157 -219 133 -307 -28 -104 -148
-167 -247 -129 -65 24 -132 116 -158 215 -32 123 23 217 141 242 44 9 84 3
131 -21z"/>
<path d="M2956 1718 c-124 -18 -200 -159 -147 -273 21 -45 86 -108 184 -178
37 -26 73 -59 79 -73 30 -65 -43 -118 -130 -95 -24 7 -60 27 -80 46 -34 31
-37 38 -39 91 l-1 58 -72 19 c-39 11 -73 17 -76 14 -13 -13 -16 -120 -4 -162
32 -113 173 -205 326 -213 67 -4 87 -1 121 16 56 29 100 83 119 148 31 107 -9
184 -149 285 -97 69 -137 109 -137 134 0 32 19 45 66 45 88 0 154 -51 154
-119 0 -37 0 -37 71 -60 84 -27 89 -24 89 59 0 103 -48 166 -166 222 -74 34
-141 46 -208 36z"/>
<path d="M5633 1611 c-175 -65 -252 -207 -218 -402 37 -212 166 -343 340 -343
173 -1 298 96 326 254 7 38 10 72 8 74 -2 2 -41 6 -86 9 l-83 5 0 -45 c0 -50
-16 -87 -54 -122 -39 -37 -128 -41 -176 -9 -19 13 -45 39 -57 57 -55 81 -80
248 -48 311 30 58 110 97 175 83 18 -3 49 -22 69 -42 l36 -37 68 39 c37 21 67
42 67 46 0 17 -66 84 -107 108 -62 36 -183 43 -260 14z"/>
<path d="M3370 1338 c-29 -128 -55 -264 -58 -303 -3 -62 -1 -76 25 -125 35
-67 102 -111 204 -134 162 -37 263 -4 320 106 29 57 147 544 134 556 -3 4 -38
14 -76 23 -50 12 -72 13 -75 5 -2 -6 -26 -110 -54 -231 -28 -121 -55 -234 -61
-251 -12 -38 -45 -70 -80 -79 -38 -9 -105 12 -142 45 -29 26 -32 34 -31 82 1
29 24 152 53 272 28 121 51 223 51 227 0 7 -117 39 -143 39 -9 0 -29 -68 -67
-232z"/>
<path d="M4915 1440 c-38 -5 -140 -16 -225 -25 -85 -9 -156 -18 -158 -20 -2
-2 8 -118 22 -257 15 -139 32 -302 38 -363 6 -60 12 -111 13 -112 2 -4 557 55
561 60 2 1 0 32 -4 67 -7 61 -9 65 -32 63 -14 -1 -92 -9 -174 -18 -222 -23
-203 -27 -211 53 -4 37 -8 76 -9 87 -1 21 27 26 283 50 l74 7 -6 65 c-2 35 -7
66 -9 69 -3 2 -83 -4 -179 -15 -96 -10 -176 -17 -178 -15 -3 3 -20 137 -17
141 1 0 83 9 184 19 101 10 188 21 194 25 7 4 8 28 3 68 l-7 61 -46 -1 c-26
-1 -78 -5 -117 -9z"/>
<path d="M4015 1405 c-7 -48 -37 -696 -33 -701 6 -5 512 -33 518 -28 2 3 6 33
8 68 l4 63 -83 7 c-46 3 -128 8 -181 12 l-98 6 0 37 c0 46 18 382 25 483 l6
76 -80 4 -81 3 -5 -30z"/>
</g>
</svg>
