<?xml version="1.0" standalone="no"?>
<!DOCTYPE svg PUBLIC "-//W3C//DTD SVG 20010904//EN"
 "http://www.w3.org/TR/2001/REC-SVG-20010904/DTD/svg10.dtd">
<svg version="1.0" xmlns="http://www.w3.org/2000/svg"
 width="500.000000pt" height="400.000000pt" viewBox="0 0 500.000000 400.000000"
 preserveAspectRatio="xMidYMid meet">

<g transform="translate(0.000000,400.000000) scale(0.100000,-0.100000)"
fill="#000000" stroke="none">
<path d="M2455 3253 c-52 -8 -48 -20 7 -20 29 0 78 -3 108 -6 30 -4 86 -8 123
-8 41 -1 63 -5 55 -10 -16 -11 5 -11 42 0 21 6 18 9 -25 15 -27 5 -77 8 -110
8 -47 0 -54 2 -30 8 20 5 23 8 10 9 -11 0 -35 -3 -53 -8 -24 -7 -40 -6 -60 5
-15 7 -29 13 -32 12 -3 0 -18 -3 -35 -5z"/>
<path d="M2255 3232 l-30 -5 25 -7 c25 -8 25 -8 2 -9 -13 -1 -20 -6 -17 -11 4
-6 13 -7 23 -1 9 5 38 12 65 16 26 4 47 12 47 17 0 6 -9 7 -22 3 -13 -3 -34
-9 -48 -11 -22 -4 -23 -3 -5 5 22 10 10 11 -40 3z"/>
<path d="M2458 3223 c7 -3 16 -2 19 1 4 3 -2 6 -13 5 -11 0 -14 -3 -6 -6z"/>
<path d="M2185 3209 c-4 -6 -13 -8 -21 -5 -8 3 -14 -1 -14 -9 0 -8 9 -15 21
-15 12 0 17 4 13 11 -4 8 1 9 17 5 13 -3 18 -3 11 0 -6 3 -10 10 -6 15 3 5 1
9 -5 9 -5 0 -13 -5 -16 -11z"/>
<path d="M2828 3203 c7 -3 16 -2 19 1 4 3 -2 6 -13 5 -11 0 -14 -3 -6 -6z"/>
<path d="M2100 3187 c-14 -8 -32 -12 -40 -9 -13 3 -13 2 -1 -7 10 -6 23 -5 43
5 15 8 28 17 28 19 0 7 -2 6 -30 -8z"/>
<path d="M2886 3181 c-4 -5 8 -13 26 -16 18 -4 38 -11 43 -16 6 -4 17 -4 25 1
14 9 11 11 -15 10 -3 0 -18 6 -35 15 -34 18 -37 18 -44 6z"/>
<path d="M2118 3169 c-9 -5 -29 -11 -45 -13 -15 -3 -39 -8 -52 -12 -15 -4 -22
-3 -18 3 3 5 -21 -3 -53 -19 -33 -15 -60 -30 -60 -32 0 -3 52 -1 88 3 6 0 12
10 12 21 0 18 3 19 20 10 11 -6 20 -7 20 -3 0 5 23 14 52 21 51 12 65 18 57
26 -2 3 -12 0 -21 -5z"/>
<path d="M3045 3120 c3 -5 11 -10 16 -10 6 0 7 5 4 10 -3 6 -11 10 -16 10 -6
0 -7 -4 -4 -10z"/>
<path d="M3080 3103 c0 -15 49 -32 57 -21 3 6 1 8 -4 5 -6 -4 -16 0 -23 8 -13
16 -30 20 -30 8z"/>
<path d="M1866 3081 c-3 -5 -1 -11 6 -14 7 -2 2 -3 -12 -1 -16 1 -40 -9 -64
-27 -24 -17 -33 -29 -23 -29 9 0 20 8 26 17 5 10 13 14 18 10 9 -10 -33 -47
-53 -47 -8 0 -14 -7 -14 -15 0 -12 8 -11 36 9 20 13 42 33 50 45 9 12 23 21
32 21 19 1 63 30 45 30 -6 0 -18 3 -26 6 -8 3 -18 1 -21 -5z m-21 -31 c-3 -5
-12 -10 -18 -10 -7 0 -6 4 3 10 19 12 23 12 15 0z"/>
<path d="M3161 3057 c2 -1 13 -9 24 -17 19 -14 19 -14 6 3 -7 9 -18 17 -24 17
-6 0 -8 -1 -6 -3z"/>
<path d="M1718 2987 c-15 -12 -15 -14 0 -23 12 -8 9 -10 -15 -8 -24 1 -30 -2
-26 -12 4 -10 9 -12 18 -4 7 6 20 8 29 4 11 -4 16 -1 16 10 0 9 -5 16 -11 16
-8 0 -8 5 1 15 15 18 11 19 -12 2z"/>
<path d="M1632 2913 c-12 -15 -22 -32 -22 -37 0 -5 -3 -7 -6 -3 -10 10 -36
-22 -28 -35 5 -8 2 -9 -9 -5 -12 4 -14 2 -10 -10 5 -12 3 -14 -7 -8 -9 6 -11
4 -5 -5 6 -10 4 -12 -11 -6 -15 6 -16 5 -7 -5 10 -10 15 -9 27 0 8 7 20 10 25
6 7 -4 8 1 4 11 -4 12 -3 15 6 10 6 -4 19 -2 27 5 12 10 12 14 2 20 -9 5 -4
11 15 18 33 13 36 21 5 13 -21 -5 -22 -4 -8 11 33 36 40 47 32 47 -4 0 -18
-12 -30 -27z m-22 -74 c0 -5 -4 -9 -10 -9 -5 0 -10 7 -10 16 0 8 5 12 10 9 6
-3 10 -10 10 -16z"/>
<path d="M3370 2905 c13 -14 26 -25 28 -25 3 0 -5 11 -18 25 -13 14 -26 25
-28 25 -3 0 5 -11 18 -25z"/>
<path d="M1665 2900 c4 -6 11 -8 16 -5 14 9 11 15 -7 15 -8 0 -12 -5 -9 -10z"/>
<path d="M1455 2713 c-16 -26 -28 -56 -27 -65 2 -10 -2 -18 -8 -18 -6 0 -8 6
-5 13 4 6 -1 3 -9 -7 -19 -23 -19 -31 -6 -56 6 -11 6 -21 1 -24 -5 -3 -11 4
-15 17 -5 18 -8 19 -15 8 -6 -9 -6 -22 0 -32 15 -28 10 -45 -6 -23 -14 18 -15
17 -6 -8 7 -18 6 -35 -2 -52 -13 -27 -33 -37 -23 -11 3 8 2 15 -3 15 -4 0 -8
-22 -7 -49 1 -27 4 -47 9 -44 4 2 7 12 7 22 0 9 4 21 8 26 5 6 15 26 22 45 7
19 22 48 33 63 16 24 17 33 8 53 -13 29 -15 45 -3 26 5 -7 16 -10 24 -7 18 7
31 42 16 47 -11 4 0 38 13 38 4 0 6 -7 3 -15 -4 -8 -1 -15 6 -15 8 0 9 10 5
31 -5 22 -2 36 11 50 9 10 13 19 8 19 -5 0 -22 -21 -39 -47z"/>
<path d="M1506 2745 c-2 -7 0 -18 6 -26 8 -11 9 -10 4 4 -3 11 0 17 9 17 8 0
15 4 15 8 0 13 -29 10 -34 -3z"/>
<path d="M3520 2736 c0 -2 8 -10 18 -17 15 -13 16 -12 3 4 -13 16 -21 21 -21
13z"/>
<path d="M1487 2705 c-4 -8 -2 -17 3 -20 6 -4 10 3 10 14 0 25 -6 27 -13 6z"/>
<path d="M1330 2500 c-6 -11 -8 -20 -6 -20 3 0 10 9 16 20 6 11 8 20 6 20 -3
0 -10 -9 -16 -20z"/>
<path d="M2770 2436 c0 -30 -17 -43 -23 -19 -3 13 -5 10 -6 -7 -2 -36 -31 -68
-66 -72 -27 -3 -30 -6 -31 -40 -1 -21 3 -38 7 -38 14 0 10 -41 -11 -109 -11
-36 -18 -67 -16 -68 2 -2 33 16 69 42 36 25 69 45 73 45 5 0 38 -20 73 -45 36
-25 66 -43 68 -41 3 2 -5 34 -16 71 -12 37 -21 73 -21 80 0 8 27 33 59 57 33
24 60 46 60 51 1 4 -35 7 -80 7 l-80 0 -25 55 c-14 30 -27 55 -30 55 -2 0 -4
-11 -4 -24z"/>
<path d="M1296 2415 c-3 -8 -1 -15 4 -15 6 0 10 7 10 15 0 8 -2 15 -4 15 -2 0
-6 -7 -10 -15z"/>
<path d="M1290 2375 c-8 -9 -8 -15 -2 -15 12 0 26 19 19 26 -2 2 -10 -2 -17
-11z"/>
<path d="M1292 2343 c-27 -5 -24 -28 4 -29 13 -1 20 6 21 17 1 11 1 18 0 18
-1 -1 -12 -4 -25 -6z"/>
<path d="M1262 2280 c0 -14 2 -19 5 -12 2 6 2 18 0 25 -3 6 -5 1 -5 -13z"/>
<path d="M1301 2284 c0 -11 3 -14 6 -6 3 7 2 16 -1 19 -3 4 -6 -2 -5 -13z"/>
<path d="M2625 2290 c-3 -5 -1 -10 4 -10 6 0 11 5 11 10 0 6 -2 10 -4 10 -3 0
-8 -4 -11 -10z"/>
<path d="M1270 2233 c0 -10 5 -25 10 -33 8 -12 10 -9 10 12 0 15 -4 30 -10 33
-5 3 -10 -2 -10 -12z"/>
<path d="M1253 2166 c0 -58 2 -66 13 -52 12 18 12 36 -5 91 -7 24 -9 17 -8
-39z"/>
<path d="M1233 2100 c0 -36 2 -50 4 -32 2 17 2 47 0 65 -2 17 -4 3 -4 -33z"/>
<path d="M1245 2031 c-4 -33 -3 -65 1 -72 4 -8 3 -9 -4 -5 -9 5 -12 -6 -12
-36 0 -49 13 -80 23 -54 3 8 2 18 -3 21 -6 4 -10 18 -9 33 l1 27 14 -30 c14
-29 15 -28 8 25 -4 30 -7 76 -6 103 3 66 -5 59 -13 -12z"/>
<path d="M2855 1775 l-27 -75 -79 0 c-43 0 -79 -3 -79 -7 1 -5 25 -28 55 -52
30 -24 55 -51 55 -61 0 -10 -9 -47 -20 -81 -10 -35 -17 -65 -15 -67 2 -3 36
17 74 43 l70 48 53 -35 c29 -19 63 -40 75 -46 24 -13 25 -23 -11 92 -9 27 -16
52 -16 55 0 4 27 27 60 51 33 25 60 48 60 53 0 4 -35 7 -78 7 l-77 0 -29 75
c-16 41 -32 75 -36 75 -4 0 -20 -34 -35 -75z"/>
<path d="M1241 1818 c0 -15 4 -30 10 -33 6 -4 8 -14 5 -22 -4 -9 -2 -11 6 -7
7 5 9 2 6 -8 -4 -8 -1 -15 7 -15 10 0 11 7 4 26 -6 14 -14 30 -19 36 -4 5 -10
19 -13 30 -4 16 -5 14 -6 -7z"/>
<path d="M2261 1795 c-12 -28 -25 -62 -28 -77 -5 -28 -6 -28 -92 -28 l-86 -1
63 -57 62 -57 -21 -68 c-11 -38 -19 -72 -17 -78 2 -5 34 11 71 36 l68 46 37
-22 c20 -13 52 -34 70 -47 18 -14 34 -23 37 -20 2 2 -7 39 -20 83 -14 43 -24
79 -22 80 1 1 31 24 67 51 l65 49 -87 3 c-80 3 -86 4 -92 25 -3 13 -16 47 -29
77 l-24 54 -22 -49z"/>
<path d="M1271 1704 c0 -11 3 -14 6 -6 3 7 2 16 -1 19 -3 4 -6 -2 -5 -13z"/>
<path d="M1289 1670 c-4 -27 32 -152 44 -151 4 1 7 3 7 6 0 3 0 12 0 21 0 8
-4 12 -10 9 -6 -3 -10 4 -10 17 -1 13 -7 46 -14 73 -11 40 -14 45 -17 25z"/>
<path d="M1366 1437 c3 -10 9 -15 12 -12 3 3 0 11 -7 18 -10 9 -11 8 -5 -6z"/>
<path d="M1405 1370 c9 -16 18 -30 21 -30 2 0 -2 14 -11 30 -9 17 -18 30 -21
30 -2 0 2 -13 11 -30z"/>
</g>
</svg>
